<svg width="24" height="24" viewBox="0 0 24 24" fill="none" xmlns="http://www.w3.org/2000/svg">
<path fill-rule="evenodd" clip-rule="evenodd" d="M12 24C18.6274 24 24 18.6274 24 12C24 5.37258 18.6274 0 12 0C5.37258 0 0 5.37258 0 12C0 18.6274 5.37258 24 12 24Z" fill="#F64662"/>
<path d="M23.25 12C23.25 18.2132 18.2132 23.25 12 23.25C5.7868 23.25 0.75 18.2132 0.75 12C0.75 5.7868 5.7868 0.75 12 0.75C18.2132 0.75 23.25 5.7868 23.25 12Z" stroke="#E42E4B" stroke-opacity="0.7" stroke-width="1.5"/>
<path fill-rule="evenodd" clip-rule="evenodd" d="M7.14579 15.1523C6.77539 15.6225 6.81425 16.3139 7.25724 16.7568C7.7343 17.2338 8.4994 17.2422 8.96614 16.7754L11.9878 13.7437L12.0038 13.7277L12.0133 13.7372L15.0477 16.7614L15.152 16.8542C15.6223 17.2246 16.3136 17.1857 16.7566 16.7427C17.2336 16.2657 17.2419 15.5006 16.7751 15.0338L13.7435 12.0121L13.7282 11.9969L16.7611 8.95238L16.8481 8.85523C17.2247 8.38491 17.1878 7.68874 16.7426 7.24348L16.6361 7.14842C16.1578 6.76764 15.4671 6.79138 15.0337 7.22477L11.9974 10.2725L8.95213 7.23885L8.85498 7.15183C8.38467 6.77527 7.68849 6.81219 7.24323 7.25741L7.14818 7.36383C6.7674 7.84222 6.79113 8.53288 7.22453 8.96632L10.273 12.0033L10.2628 12.0136L7.23854 15.0479L7.14579 15.1523Z" fill="white"/>
</svg>
